<?xml version="1.0" encoding="utf-8"?>
<!-- Generator: Adobe Illustrator 19.1.0, SVG Export Plug-In . SVG Version: 6.00 Build 0)  -->
<svg version="1.1" id="Layer_1" xmlns="http://www.w3.org/2000/svg" xmlns:xlink="http://www.w3.org/1999/xlink" x="0px" y="0px"
	 viewBox="0 0 179.2 329.3" enable-background="new 0 0 179.2 329.3" xml:space="preserve">
<path d="M161.4,229.6c4-3.1,8.4-3.7,13-1.8c0,0,0,0,0,0c4.3,3.7,5.6,8.1,4.4,13.8l-17.4,39.4c-15,25.4-39.3,33.2-66.4,21.2
	c-17.1-7.6-29.8-20.4-41.2-34.8c-1.4-1.8-2.8-3.6-4.8-6.3c-1.8,7.8-1.4,14.9-2.2,21.8c-1.3,11.7-2.1,23.5-3.2,35.3
	c-0.6,6.5-5.5,10.7-11.3,10.2c-5.7-0.5-9.9-5.5-9.4-12c1.7-21.4,3.7-42.8,5.5-64.1c1.5-17.4,2.9-34.7,4.4-53.7
	c-5.3,6.7-9.6,12.2-14,17.7c-2.9,3.6-6.7,5-11.1,3.8c-4.2-1.2-6.7-4.2-7.5-8.5c-0.7-3.6,1-6.4,3.1-9.1c10.5-13.2,20.1-26.9,29.4-41
	c3.5-5.3,4.6-10.8,5.2-16.8c3.5-34.6,6.3-69.2,12.9-103.4c1.2-6.2,3-12.3,5.1-18.2C59,14.5,64.1,7.1,71.8,1.7c3.3,0,6.7,0,10,0
	c12.7,5.8,15.3,17.5,15.9,29.5c1.5,32.5-7.3,62.8-20.6,92.1c-5.6,12.3-11.5,24.4-18.6,35.9c-2.4,3.9-1.7,8.1-2.1,12.1
	c-1.4,13.2-2.5,26.5-3.6,39.8c-0.1,0.9,0.1,1.9,0.2,3.3c6.6-2.4,12.3-5.7,18-9.2c18.2-11.2,33.9-25.2,46.8-42.2
	c4.9-6.5,10.8-8.1,16.2-4.1c5.1,3.8,5.3,10.4,0.3,16.8c-19.4,25.1-43.4,44.6-72.3,57.7c-4.1,1.9-4,3.3-1.8,6.7
	c10.1,15.8,21.3,30.7,37.8,40.5c5.3,3.2,11.1,5.3,17.3,6.1c13.3,1.7,22-5.1,28-15.9L161.4,229.6z M76.5,29.9
	c-2.4,3.7-3.6,7.8-4.5,12c-3.6,15.5-5.6,31.3-7.1,47.2c-0.2,2.1-2.7,5.2,0,6.1c2,0.7,1.5-3.1,2.2-4.9C74.7,70.9,78,50.8,76.5,29.9z"
	/>
</svg>
