<?xml version="1.0" encoding="utf-8"?>
<!-- Generator: Adobe Illustrator 22.1.0, SVG Export Plug-In . SVG Version: 6.00 Build 0)  -->
<svg version="1.1" id="Layer_1" xmlns="http://www.w3.org/2000/svg" xmlns:xlink="http://www.w3.org/1999/xlink" x="0px" y="0px"
	 viewBox="0 0 179.2 179.9" style="enable-background:new 0 0 179.2 179.9;" xml:space="preserve">
<g>
	<path d="M110.3,19.9C110.2,30.7,101.8,39,91,38.9c-10.7-0.1-19.2-9-18.9-19.4C72.3,8.9,81.2,0.3,91.6,0.4
		C102.2,0.5,110.4,9.1,110.3,19.9z"/>
	<path d="M106,56.4c0.1,8-6.3,14.8-14.5,14.9c-8.2,0.1-14.7-6.3-14.8-14.5S82.9,42.1,91,42C99.2,42,105.7,48.3,106,56.4z"/>
	<g>
		<path d="M101,133.4c4-25.3,16.7-46.3,32.5-65.7c1.5-1.8,1.8-4.5,2.5-6.4c4.8-1.6,11-2.8,16.1-5.9c3.2-2.1,5.4-6.9,6.4-10.8
			c2.2-9.1-3.2-18.3-11.8-21.5c-8.6-3.2-18.1,0-23,7.5c-5.7,9.1-3.6,18.4,6.4,27.7c-6.9,9.8-14.6,19.2-20.6,29.5
			c-5.9,10.1-10.1,21.2-15,32c0-12.6,0-25.8,0-39.4c-2.8,0-4.9,0-7.8,0c0,10,0,19.5,0,30.2c-1-1.1-1.5-1.5-1.6-1.8
			c-4.6-20-15.6-36.3-27.7-52c-2.1-2.8-2.3-4.7-0.8-7.9c3.9-8.5,1.3-18-6-23.3c-7-5.2-17.1-4.9-23.7,0.7c-6.8,5.6-8.8,15.2-4.9,23.2
			c4,8.3,12.5,12.5,21.8,10.1c3.8-1,5.5,0.1,7.8,2.9c20.7,24,28.6,52.8,32.4,83.4c1,8.3,2.3,16.4,3.2,24.7c0.1,1.3,0,7.8-0.2,9.1h8
			c0.1-2,0.3-9.1,0.6-11C97.5,156.8,99.2,145.1,101,133.4z"/>
	</g>
</g>
</svg>
